<svg xmlns="http://www.w3.org/2000/svg" viewBox="0 0 333.01 98.34"><g id="Layer_2" data-name="Layer 2"><g id="Layer_1-2" data-name="Layer 1"><path d="M43.41,22.44H56.92a1.38,1.38,0,0,1,1.38,1.39V67.76c0,11.22-1.87,17.49-6.82,22.44-5.17,5.17-13.2,8.14-22.22,8.14A36.89,36.89,0,0,1,4.05,88.86a1.39,1.39,0,0,1-.07-2l8.11-8.28a1.37,1.37,0,0,1,1.94,0,19.78,19.78,0,0,0,14.35,6C37,84.48,42,79.2,42,70.29V67.76c-4.51,5.06-10.34,7.59-17.6,7.59A24.49,24.49,0,0,1,5.83,66.66C2.09,62.15,0,55.66,0,48.4,0,31.68,10.56,20.46,26.29,20.46c5.56,0,9.81,1.46,13.39,4.69a1.39,1.39,0,0,0,2.34-1v-.31A1.39,1.39,0,0,1,43.41,22.44ZM17.82,47.63c0,7.59,5.06,13,12.32,13a12.92,12.92,0,0,0,9.46-4C41,55,41.8,52.47,41.8,49.28c0-8.8-4.4-14.08-11.88-14.08C22.77,35.2,17.82,40.26,17.82,47.63Z"/><path d="M83.27,23.83h0a1.38,1.38,0,0,0,2.41.92c2.7-3.07,5.87-4.29,10.57-4.29a19.07,19.07,0,0,1,13.09,4.95c3.41,3.52,4.62,7.7,4.62,16.72V72a1.39,1.39,0,0,1-1.39,1.39H98.62A1.38,1.38,0,0,1,97.24,72V42.24c0-5-2.64-7.92-6.93-7.92s-7,3.19-7,8.14V72a1.39,1.39,0,0,1-1.39,1.39H67.94A1.39,1.39,0,0,1,66.55,72V23.83a1.39,1.39,0,0,1,1.39-1.39H81.88A1.39,1.39,0,0,1,83.27,23.83Z"/><path d="M196.5,73.37H182.55A1.38,1.38,0,0,1,181.17,72V1.39A1.38,1.38,0,0,1,182.55,0H196.5a1.39,1.39,0,0,1,1.39,1.39V35.75a1.39,1.39,0,0,0,2.56.74l8.36-13.4a1.4,1.4,0,0,1,1.18-.65h15.67a1.39,1.39,0,0,1,1.18,2.11L213.71,46a1.4,1.4,0,0,0,0,1.4l13.31,24a1.38,1.38,0,0,1-1.21,2.06H210a1.39,1.39,0,0,1-1.21-.71l-8.34-15a1.38,1.38,0,0,0-2.59.68V72A1.39,1.39,0,0,1,196.5,73.37Z"/><path d="M245.59,51.48a1.38,1.38,0,0,0-1.32,1.81c1.69,4.62,5.77,7.32,11.15,7.32,4.13,0,7.62-1.67,9.53-4.74a1.37,1.37,0,0,1,1.51-.6l12.68,3.26a1.38,1.38,0,0,1,.88,2,24.23,24.23,0,0,1-7.44,8.78,27.27,27.27,0,0,1-17.49,6c-16.61,0-28.6-11.55-28.6-27.72s11.22-27.17,27.72-27.17c16.83,0,28.16,11.55,28.16,28.93v.7A1.39,1.39,0,0,1,281,51.48Zm17.88-8.91a1.4,1.4,0,0,0,1.29-1.91c-1.59-4.08-5.26-6.34-10.44-6.34-5,0-8.56,2.26-10.12,6.35a1.39,1.39,0,0,0,1.29,1.9Z"/><path d="M317,22.44h14.64a1.39,1.39,0,0,1,1.3,1.88L306.14,95.14a1.4,1.4,0,0,1-1.3.89H289.89a1.39,1.39,0,0,1-1.3-1.88l8.22-21.29a1.38,1.38,0,0,0,0-1L279.94,24.29a1.39,1.39,0,0,1,1.31-1.85H296a1.39,1.39,0,0,1,1.32.95l7.27,22.08a1.38,1.38,0,0,0,2.61.06l8.5-22.2A1.37,1.37,0,0,1,317,22.44Z"/><path d="M138.29,57.69a1.43,1.43,0,0,0-.19-1.46A13.48,13.48,0,0,1,135.52,48c0-7.59,4.73-12.65,12-12.65h.3a1.37,1.37,0,0,0,1.29-.79L154.49,23a1.39,1.39,0,0,0-1-1.95,32.17,32.17,0,0,0-6-.55c-16.94,0-28.71,11.33-28.71,27.5,0,9.74,4.47,17.79,11.71,22.59a1.39,1.39,0,0,0,2-.56Z"/><path d="M162.21,25.93l-5.68,12.18a1.37,1.37,0,0,0,.12,1.37,14.5,14.5,0,0,1,2.52,8.81c0,7.26-4.84,12.32-11.77,12.32H147a1.39,1.39,0,0,0-1.29.8l-5.35,11.47a1.39,1.39,0,0,0,1,1.95,33,33,0,0,0,6,.53c16.06,0,28.71-11.77,28.71-26.84,0-9.95-4.48-18.21-11.73-23.13A1.4,1.4,0,0,0,162.21,25.93Z"/></g></g></svg>