<svg xmlns="http://www.w3.org/2000/svg" viewBox="0 0 1082.33 278.19"><g id="Layer_2" data-name="Layer 2"><g id="Layer_1-2" data-name="Layer 1"><polygon points="87.91 167.18 80.07 195.86 79.65 195.86 72.02 166.97 50.56 97.63 0 97.63 0 233.83 31.57 233.83 31.57 171.3 30.54 129.41 30.95 129.41 64.59 233.83 93.27 233.83 126.91 129.41 127.32 129.41 126.29 171.3 126.29 233.83 157.66 233.83 157.66 97.63 109.16 97.63 87.91 167.18"/><path d="M265,205.56V167.79q0-12.78-5.68-21.56A34.68,34.68,0,0,0,243,133q-10.64-4.43-25.69-4.43-22.5,0-34.87,8.87a36.86,36.86,0,0,0-15.27,23.73l29.71,7q1.86-8.67,6.71-12.08a19.83,19.83,0,0,1,11.66-3.4q6.81,0,10.83,4.23t4,11.45v3l-35.7,7.37q-14.44,2.9-21.15,10.22t-6.7,18.46q0,9.28,4.23,15.58a26.41,26.41,0,0,0,12.07,9.6,47.11,47.11,0,0,0,18.37,3.3A52.85,52.85,0,0,0,218.63,233a31.32,31.32,0,0,0,13.62-8.87,20.1,20.1,0,0,0,2.57-3.68,19,19,0,0,0,2.28,4.81,21.08,21.08,0,0,0,9.7,7.85A37,37,0,0,0,261,235.69a35.55,35.55,0,0,0,15.06-2.89l2.07-20a18,18,0,0,1-6,.82Q265,213.6,265,205.56Zm-36.32-2.07a15.14,15.14,0,0,1-3.92,5.47,15.86,15.86,0,0,1-5.68,3.2,21.59,21.59,0,0,1-6.7,1,13.44,13.44,0,0,1-7.84-2.27,7.69,7.69,0,0,1-3.3-6.81c0-3.16,1-5.53,3-7.12s5.05-2.78,9.18-3.61l16.71-3.48v5.75A19.49,19.49,0,0,1,228.64,203.49Z"/><path d="M383,233.83V165.11q0-12.17-4.54-20.22A30,30,0,0,0,366,132.71a40,40,0,0,0-18.68-4.12,40.78,40.78,0,0,0-17.85,3.81,34.19,34.19,0,0,0-13.2,11.25,39,39,0,0,0-4.18,7.69L311,130.65H279.61V233.83h35.08V179.14q0-8.65,2.48-13.82a16.24,16.24,0,0,1,6.81-7.53,19,19,0,0,1,9.28-2.38,14.3,14.3,0,0,1,10.53,4.13q4.13,4.13,4.12,14.86v59.43Z"/><path d="M443.87,188.64l-5.78,22.7-4.95-21.88-15.89-58.81H378.66L409.61,208l12,28.07-2.68,6.4c-1.52,3.84-3.54,6.46-6.09,7.84a20.59,20.59,0,0,1-9.8,2.06,40.85,40.85,0,0,1-10.52-1.13,24.62,24.62,0,0,1-7.85-3.82l-7,23.73a45.47,45.47,0,0,0,12.59,5.16,63.64,63.64,0,0,0,15.89,1.85q13,0,22.28-4.33a40.91,40.91,0,0,0,16.1-14q6.81-9.7,12.59-26l37.55-103.18H459.76Z"/><path d="M596.36,178.94q0,14.66-6.29,21.87T571,208q-12.59,0-18.88-7.22t-6.29-21.87V97.63h-35.7v80.69q0,28.89,15.47,43.23T571,235.89q30.13,0,45.5-14.34t15.38-43.23V97.63h-35.5Z"/><path d="M704.49,171.51l-18.78-3.72q-7-1.44-9.59-3.4a5.72,5.72,0,0,1-2.58-4.64,5.61,5.61,0,0,1,1.65-4.13,11.26,11.26,0,0,1,5.06-2.58,32.13,32.13,0,0,1,8.35-.93,38.14,38.14,0,0,1,15.69,3.51,33.68,33.68,0,0,1,12.79,9.7l16.71-19a43.68,43.68,0,0,0-19-13.2q-12-4.55-27.65-4.54-16.71,0-27.45,4.85T643.82,146a28.76,28.76,0,0,0-5.15,16.2q0,12.6,8.15,20.33t27.55,11.66l14.44,2.89q6.2,1.23,8.25,3a5.79,5.79,0,0,1,2.07,4.64c0,2.62-1.38,4.54-4.13,5.78a25.71,25.71,0,0,1-10.52,1.86,41.78,41.78,0,0,1-32.81-15.48l-16.51,19.4a56.2,56.2,0,0,0,22,14.55,80.45,80.45,0,0,0,28.79,5q16.3,0,27-4.64t16.1-12.69a32.06,32.06,0,0,0,5.36-18.16,26.23,26.23,0,0,0-7-18.37Q720.38,174.4,704.49,171.51Z"/><path d="M839.24,184.92q.21-3.71.21-7.43a52.23,52.23,0,0,0-6-25.28A42.85,42.85,0,0,0,816,134.88q-11.46-6.28-27.76-6.29-15.88,0-28.16,6.39A45.93,45.93,0,0,0,741,153.35q-6.81,12-6.81,28.89T741,211.13a45.59,45.59,0,0,0,19.29,18.36q12.48,6.4,29.61,6.4a68,68,0,0,0,20.54-3.09,48,48,0,0,0,16.92-9.19,32.53,32.53,0,0,0,10-15l-28.06-9.28a18.55,18.55,0,0,1-6.91,8.66q-4.65,3.1-12.49,3.1a24,24,0,0,1-12-2.79,18,18,0,0,1-7.64-9.08,32.46,32.46,0,0,1-2.14-8.15h70.44A57.59,57.59,0,0,0,839.24,184.92ZM777,156.24a19.74,19.74,0,0,1,11.24-3.1q9.29,0,13.73,6.61c2.13,3.18,3.49,7.39,4.08,12.58H768.41a36.81,36.81,0,0,1,1.6-6.39Q772.38,159.34,777,156.24Z"/><path d="M908.58,171.51l-18.78-3.72q-7-1.44-9.6-3.4a5.72,5.72,0,0,1-2.58-4.64,5.58,5.58,0,0,1,1.66-4.13,11.22,11.22,0,0,1,5.05-2.58,32.21,32.21,0,0,1,8.36-.93,38.1,38.1,0,0,1,15.68,3.51,33.71,33.71,0,0,1,12.8,9.7l16.71-19a43.79,43.79,0,0,0-19-13.2q-12-4.55-27.66-4.54-16.71,0-27.44,4.85T847.91,146a28.77,28.77,0,0,0-5.16,16.2q0,12.6,8.15,20.33t27.55,11.66l14.44,2.89q6.2,1.23,8.26,3a5.81,5.81,0,0,1,2.06,4.64c0,2.62-1.37,4.54-4.13,5.78a25.71,25.71,0,0,1-10.52,1.86,41.78,41.78,0,0,1-32.81-15.48l-16.51,19.4a56.23,56.23,0,0,0,22,14.55,80.41,80.41,0,0,0,28.79,5q16.29,0,27-4.64t16.09-12.69a32,32,0,0,0,5.37-18.16,26.2,26.2,0,0,0-7-18.37Q924.46,174.4,908.58,171.51Z"/><path d="M1036.1,170.37q8.06-6.5,8.05-18.26a23,23,0,0,0-3.61-12.79,24.82,24.82,0,0,0-9.59-8.67,29.76,29.76,0,0,0-13.83-3.1H980.8v75.12h21.05v-25.8h5.55l13.43,25.8h25l-18.12-27.76A27.09,27.09,0,0,0,1036.1,170.37Zm-34.25-25.48h10.32a13.77,13.77,0,0,1,7.84,2c1.92,1.31,2.89,3.61,2.89,6.91s-1,5.44-2.89,6.81a13.23,13.23,0,0,1-7.84,2.07h-10.32Z"/><path d="M1073.25,129.21a65.48,65.48,0,0,0-25.07-24.66q-16-9-36.84-9-20.64,0-36.73,9a65.22,65.22,0,0,0-25.18,24.66q-9.07,15.67-9.08,36.52,0,20.64,9.08,36.42a65.09,65.09,0,0,0,25.18,24.77q16.1,9,36.73,9,20.83,0,36.84-9a65.34,65.34,0,0,0,25.07-24.77q9.07-15.78,9.08-36.42Q1082.33,144.9,1073.25,129.21Zm-15.58,64a48,48,0,0,1-18.57,18.67q-11.88,6.71-27.76,6.71-15.69,0-27.65-6.71A47.77,47.77,0,0,1,965,193.18q-6.71-12-6.7-27.45t6.7-27.44a47.79,47.79,0,0,1,18.68-18.68q12-6.7,27.65-6.71,15.88,0,27.76,6.71a48,48,0,0,1,18.57,18.68q6.7,12,6.71,27.44T1057.67,193.18Z"/><path d="M19.56,55.2H49.48l7,18.3H65l-25.6-66h-9.5l-25.7,66h8.4ZM31.47,24l2.9-8.9h.2l3.1,9.2,8.94,23.4H22.42Z"/><path d="M104.47,47.7h15.3a26,26,0,0,0,11.65-2.45,18.66,18.66,0,0,0,7.75-7A19.82,19.82,0,0,0,142,27.6a19.82,19.82,0,0,0-2.8-10.7A18.66,18.66,0,0,0,131.42,10,26,26,0,0,0,119.77,7.5H96.47v66h8Zm0-32.7h14.1q7.8,0,11.4,3.2t3.6,9.4q0,6.1-3.6,9.35t-11.4,3.25h-14.1Z"/><path d="M175.27,30.2a12.39,12.39,0,0,1,2.4.6l1.4-7.3a7.5,7.5,0,0,0-2.65-.8,23.2,23.2,0,0,0-2.85-.2,19.69,19.69,0,0,0-9.85,2.3,14.64,14.64,0,0,0-6.15,6.9l-1.1-8.2H150v50h8v-27a18.35,18.35,0,0,1,2.1-9.25,14.29,14.29,0,0,1,5.25-5.45,12.51,12.51,0,0,1,6.25-1.8A26.5,26.5,0,0,1,175.27,30.2Z"/><path d="M191.37,71.4a26.85,26.85,0,0,0,25,0,21.79,21.79,0,0,0,8.55-9,29.49,29.49,0,0,0,3.1-14,29.49,29.49,0,0,0-3.1-14,21.79,21.79,0,0,0-8.55-8.95,26.85,26.85,0,0,0-25,0,21.6,21.6,0,0,0-8.6,8.95,29.37,29.37,0,0,0-3.1,14,29.37,29.37,0,0,0,3.1,14A21.6,21.6,0,0,0,191.37,71.4Zm-1.75-33.15a14.93,14.93,0,0,1,5.55-6.55,17.6,17.6,0,0,1,17.4,0,14.93,14.93,0,0,1,5.55,6.55,24.44,24.44,0,0,1,1.95,10.25,24.55,24.55,0,0,1-1.95,10.2,14.85,14.85,0,0,1-5.55,6.6,17.6,17.6,0,0,1-17.4,0,14.85,14.85,0,0,1-5.55-6.6,24.55,24.55,0,0,1-2-10.2A24.44,24.44,0,0,1,189.62,38.25Z"/><path d="M245.27,71.4a21.79,21.79,0,0,0,11.4,3.1,21,21,0,0,0,8.15-1.6,17.4,17.4,0,0,0,6.5-4.65,13.91,13.91,0,0,0,2.41-4l.54,9.26h7V.5h-8V31.57a15.12,15.12,0,0,0-5-5.87,18.25,18.25,0,0,0-10.75-3.2,23.22,23.22,0,0,0-11.6,3.05,22.86,22.86,0,0,0-8.7,8.85,28.12,28.12,0,0,0-3.3,14.1,29.37,29.37,0,0,0,3.1,14A22.22,22.22,0,0,0,245.27,71.4Zm.8-36.7q4.2-5.21,11.8-5.2a14.63,14.63,0,0,1,8.05,2.2,14.82,14.82,0,0,1,5.4,6.3,22.63,22.63,0,0,1,1.95,9.8,25.88,25.88,0,0,1-1.95,10.45,15.57,15.57,0,0,1-5.5,6.85,14.56,14.56,0,0,1-8.35,2.4q-7.41,0-11.5-5.2t-4.1-13.8Q241.87,39.91,246.07,34.7Z"/><path d="M302.92,72.7A23,23,0,0,0,312,74.5a24.73,24.73,0,0,0,10.45-2,15.62,15.62,0,0,0,7.05-6.55l.5,7.6h7v-50h-8V50.7a20.94,20.94,0,0,1-1.25,7.6,14.51,14.51,0,0,1-3.4,5.25,13.39,13.39,0,0,1-4.85,3,16.57,16.57,0,0,1-5.5,1q-6,0-9.3-2.85t-3.3-10.45V23.5h-8V56.3q0,6.5,2.65,10.55A15.15,15.15,0,0,0,302.92,72.7Z"/><path d="M357.77,71.4a25,25,0,0,0,12.5,3.1,24.09,24.09,0,0,0,9.45-1.75,19.75,19.75,0,0,0,7.1-5,24.6,24.6,0,0,0,4.65-7.9l-7.4-2.6a13.19,13.19,0,0,1-2.55,5.6,11.87,11.87,0,0,1-4.7,3.5,17.32,17.32,0,0,1-6.75,1.2,15.88,15.88,0,0,1-8.6-2.25A14.22,14.22,0,0,1,356,58.7a25.06,25.06,0,0,1-1.9-10.2A25,25,0,0,1,356,38.25a14.29,14.29,0,0,1,5.5-6.5,15.88,15.88,0,0,1,8.6-2.25,13.31,13.31,0,0,1,8.45,2.55,15.17,15.17,0,0,1,4.85,7.35l7.6-3.6a24.07,24.07,0,0,0-4.7-7.1,19.84,19.84,0,0,0-6.85-4.6,24.23,24.23,0,0,0-9.15-1.6,25,25,0,0,0-12.5,3.1,21.6,21.6,0,0,0-8.6,8.95,29.37,29.37,0,0,0-3.1,14,29.37,29.37,0,0,0,3.1,14A21.6,21.6,0,0,0,357.77,71.4Z"/><path d="M403.37,61.1a14.35,14.35,0,0,0,2.05,7.75,11.24,11.24,0,0,0,5.25,4.3,18.54,18.54,0,0,0,7.1,1.35A20.29,20.29,0,0,0,425,73.3a17,17,0,0,0,5.45-3.3l-2.8-6.7a13.88,13.88,0,0,1-3.8,2.7,11.5,11.5,0,0,1-5,1,8,8,0,0,1-5.4-1.8q-2.1-1.8-2.1-5.5V30.4h18.2V23.5h-18.2V9.3l-8,2.2v12h-10v6.9h10Z"/><path d="M496.81,25.6a26.85,26.85,0,0,0-25.05,0,21.72,21.72,0,0,0-8.6,8.95,29.49,29.49,0,0,0-3.1,14,29.49,29.49,0,0,0,3.1,14,21.72,21.72,0,0,0,8.6,9,26.85,26.85,0,0,0,25.05,0,21.67,21.67,0,0,0,8.55-9,29.37,29.37,0,0,0,3.1-14,29.37,29.37,0,0,0-3.1-14A21.67,21.67,0,0,0,496.81,25.6Zm1.7,33.1A14.85,14.85,0,0,1,493,65.3a17.6,17.6,0,0,1-17.4,0A14.85,14.85,0,0,1,470,58.7a24.55,24.55,0,0,1-1.95-10.2A24.44,24.44,0,0,1,470,38.25a14.93,14.93,0,0,1,5.55-6.55,17.6,17.6,0,0,1,17.4,0,14.93,14.93,0,0,1,5.55,6.55,24.44,24.44,0,0,1,1.95,10.25A24.55,24.55,0,0,1,498.51,58.7Z"/><path d="M520.56,73.5h8V30.4h16.7V23.5h-16.7V15.9q0-4.5,2.4-6.55a10,10,0,0,1,6.7-2,12.89,12.89,0,0,1,3.1.35,8.2,8.2,0,0,1,2.6,1.15l2.1-6.5a9,9,0,0,0-3.6-1.7A19.29,19.29,0,0,0,537,0a21.62,21.62,0,0,0-7.2,1.1,14,14,0,0,0-5.15,3.1A12.53,12.53,0,0,0,521.56,9a18.19,18.19,0,0,0-1,6.1v8.4h-10v6.9h10Z"/></g></g></svg>