<svg width="11" height="11" viewBox="0 0 11 11" fill="none" xmlns="http://www.w3.org/2000/svg">
<path d="M2.36246 10.776L0.418457 8.832L3.42446 5.826C3.89246 5.358 4.37846 4.89 4.88246 4.422C5.38646 3.954 5.88446 3.522 6.37646 3.126C6.88046 2.718 7.34846 2.382 7.78046 2.118L9.49046 1.704L9.07646 3.414C8.81246 3.846 8.47646 4.314 8.06846 4.818C7.67246 5.322 7.24046 5.826 6.77246 6.33C6.30446 6.834 5.83646 7.314 5.36846 7.77L2.36246 10.776ZM7.60046 9.93C7.56446 9.666 7.54046 9.396 7.52846 9.12C7.51646 8.844 7.51046 8.568 7.51046 8.292C7.51046 7.236 7.58846 6.294 7.74446 5.466C7.91246 4.638 8.12246 3.906 8.37446 3.27C8.62646 2.634 8.88446 2.082 9.14846 1.614L9.58046 2.046C9.11246 2.31 8.56046 2.568 7.92446 2.82C7.28846 3.072 6.55646 3.282 5.72846 3.45C4.90046 3.606 3.95846 3.684 2.90246 3.684C2.62646 3.684 2.35046 3.678 2.07446 3.666C1.79846 3.654 1.52846 3.63 1.26446 3.594L1.39046 0.875999C2.06246 1.008 2.77646 1.098 3.53246 1.146C4.28846 1.194 5.05046 1.218 5.81846 1.218C6.56246 1.218 7.30046 1.194 8.03246 1.146C8.77646 1.086 9.49046 1.02 10.1745 0.948L10.2465 1.02C10.1745 1.704 10.1085 2.412 10.0485 3.144C10.0005 3.876 9.97646 4.62 9.97646 5.376C9.97646 6.144 10.0005 6.906 10.0485 7.662C10.0965 8.418 10.1865 9.132 10.3185 9.804L7.60046 9.93Z" fill="black"/>
</svg>
