<svg width="991" height="155" viewBox="0 0 991 155" fill="none" xmlns="http://www.w3.org/2000/svg">
<g clip-path="url(#clip0)">
<path d="M249.9 74.6C249.9 95.8 258.3 112 278.4 112C295.5 112 301.6 102.3 301.6 93V91.8H278V65.5H339.2V135.5H312.4C311.5 132.9 310.7 128.7 310 124.6C302.3 133.1 292.2 138.3 270.2 138.3C230.6 138.3 208.7 111.7 208.7 76.6C208.7 42.4 230.4 12.7 277.7 12.7C315.8 12.7 335.8 32 339.4 52.2H300.3C298.4 46.6 293.3 38.4 277.6 38.4C257.3 38.4 249.9 55.1 249.9 74.6ZM437.5 36.6C437.5 56.4 437.3 78.1 438.5 89.6H437.8C429.9 74.1 421.1 58.5 394.4 15.5H349V135.6H384.2V106.4C384.2 82.8 384 66.8 383 53.1H383.5C390.7 67.8 420.2 118.9 429.6 135.6H472.5V15.5H437.5V36.6ZM616.2 75.3C616.2 109.1 593.7 138.3 546.5 138.3C503.1 138.3 479.2 110.6 479.2 75.4C479.2 42.3 502.4 12.7 548.2 12.7C591.6 12.7 616.2 41.1 616.2 75.3ZM575 75.4C575 54.6 567.7 39.2 547.3 39.2C528 39.2 520.3 55.1 520.3 74.7C520.3 95.7 528.7 111.1 548.3 111.1C568.7 111.1 575 93.5 575 75.4ZM990.5 15.5L941.1 90.5C940.4 91.5 940.2 92.6 940.2 94.6V135.6H901V93.9C901 92 900.5 91 899.3 89.3L856.8 24.4V43.2H789.2V59.9H853.4V87.7H789.2V107.9H860.9L856.5 135.6H756.9H750.7H709.9L675 87.9L661.2 100.5V135.5H622.3V15.5H661.2V65C675.7 49.1 688.4 34.9 706.8 15.5H750.7H753.9H850.9H856.7H896.7C906.4 32.8 916.5 50.9 922.3 63.7C928.1 51.4 938.7 33.6 948.4 15.5H990.5ZM750.6 18.6L702.1 66L750.6 127.7V18.6ZM171 66.9C170.5 66 169.5 65.4 168.4 65.4H122.1C119.3 65.4 116.9 67.7 116.9 70.6V99.4C116.9 103.1 113.9 106.1 110.2 106.1H65.1998C61.4998 106.1 58.4998 103.1 58.4998 99.4V54.4C58.4998 50.7 61.4998 47.7 65.1998 47.7H102.4H110.2H154.6C156.9 47.7 158.4 45.2 157.2 43.1L135.4 5.2C133.5 2 130.1 0 126.4 0H48.9998C45.2998 0 41.8998 2 40.0998 5.2L1.3998 72.2C-0.400195 75.4 -0.400195 79.3 1.3998 82.5L40.0998 149.6C41.8998 152.8 45.2998 154.8 48.9998 154.8H126.4C130.1 154.8 133.5 152.8 135.3 149.6L174 82.5C175.8 79.3 175.8 75.4 174 72.2L171 66.9ZM83.0998 61.3L71.5998 72.8C69.0998 75.3 69.0998 79.4 71.5998 81.9L83.1998 93.5C85.6998 96 89.7998 96 92.2998 93.5L103.9 81.9C106.4 79.4 106.4 75.3 103.9 72.8L92.1998 61.3C89.6998 58.7 85.5998 58.7 83.0998 61.3Z" fill="black"/>
</g>
<defs>
<clipPath id="clip0">
<rect width="990.5" height="154.7" fill="white"/>
</clipPath>
</defs>
</svg>
