<?xml version="1.0" standalone="no"?>
<!DOCTYPE svg PUBLIC "-//W3C//DTD SVG 20010904//EN"
 "http://www.w3.org/TR/2001/REC-SVG-20010904/DTD/svg10.dtd">
<svg version="1.0" xmlns="http://www.w3.org/2000/svg"
 width="512.000000pt" height="512.000000pt" viewBox="0 0 512.000000 512.000000"
 preserveAspectRatio="xMidYMid meet">
<metadata>
Created by potrace 1.11, written by Peter Selinger 2001-2013
</metadata>
<g transform="translate(0.000000,512.000000) scale(0.100000,-0.100000)"
fill="#000000" stroke="none">
<path d="M2408 4245 c-2 -1 -34 -6 -73 -9 -38 -4 -77 -9 -85 -11 -8 -2 -33 -6
-55 -9 -34 -4 -96 -18 -240 -55 -41 -11 -208 -78 -270 -108 -212 -105 -425
-279 -550 -448 -17 -22 -32 -42 -35 -45 -3 -3 -19 -25 -35 -50 -121 -184 -222
-446 -251 -655 -3 -27 -9 -59 -11 -70 -13 -53 -11 -395 3 -485 43 -283 138
-528 284 -735 89 -126 272 -306 395 -388 55 -37 105 -67 110 -67 8 0 69 114
80 150 1 3 13 30 27 60 14 30 53 116 87 190 34 74 71 153 81 175 11 22 48 103
84 180 l64 140 -24 26 c-13 14 -24 30 -24 36 0 6 -7 16 -15 23 -15 12 -62 106
-83 165 -55 155 -61 382 -15 550 66 243 229 418 455 488 103 32 147 39 252 39
l84 1 32 71 c18 39 50 109 72 156 22 47 94 202 160 345 67 143 125 265 130
271 5 8 2 14 -9 18 -23 9 -153 34 -218 42 -53 6 -401 14 -407 9z"/>
<path d="M3450 3863 c-35 -76 -87 -187 -115 -248 -157 -333 -225 -483 -225
-493 0 -7 15 -33 34 -59 37 -53 86 -154 86 -177 0 -8 4 -17 9 -20 8 -5 21 -63
38 -166 14 -79 8 -300 -10 -365 -52 -198 -144 -338 -287 -435 -62 -42 -160
-86 -211 -95 -18 -3 -36 -8 -39 -10 -14 -9 -105 -17 -181 -17 l-77 0 -30 -67
c-46 -99 -104 -224 -157 -336 -26 -55 -63 -134 -82 -175 -20 -41 -55 -117 -79
-167 -41 -86 -50 -113 -40 -113 2 0 37 -7 77 -15 41 -8 90 -17 109 -21 58 -10
451 -13 510 -3 30 5 71 11 90 13 37 5 46 7 155 31 46 10 155 44 220 70 557
219 942 666 1056 1225 19 94 23 147 24 295 0 162 -3 216 -22 335 -2 19 -18 85
-33 146 -90 350 -277 643 -564 883 -44 36 -172 121 -183 121 -5 0 -38 -62 -73
-137z"/>
</g>
</svg>
